# Blender v2.79 (sub 0) OBJ File: 'start.blend'
# www.blender.org
mtllib start.mtl
o Cube
v 0.382683 0.000000 -1.000000
v 0.200000 0.200000 -0.400000
v 1.000000 0.000000 -0.382683
v 0.400000 0.200000 -0.200000
v 1.000000 0.000000 0.382683
v 0.400000 0.200000 0.200000
v 0.382683 0.000000 1.000000
v 0.200000 0.200000 0.400000
v -0.382684 0.000000 1.000000
v -0.200000 0.200000 0.400000
v -1.000000 0.000000 0.382683
v -0.400000 0.200000 0.200000
v -1.000000 0.000000 -0.382683
v -0.400000 0.200000 -0.200000
v -0.382684 0.000000 -1.000000
v -0.200000 0.200000 -0.400000
v -0.710959 0.200000 0.342017
v -0.342018 0.200000 0.710959
v 0.342018 0.200000 0.710959
v 0.710959 0.200000 0.342018
v 0.342018 0.200000 -0.710959
v 0.710959 0.200000 -0.342018
v -0.342018 0.200000 -0.710959
v -0.710959 0.200000 -0.342018
v 0.800000 0.200000 -0.382683
v 0.382683 0.200000 -0.800000
v 0.800000 0.200000 0.382683
v 0.382683 0.200000 0.800000
v -0.382684 0.200000 0.800000
v -0.800000 0.200000 0.382683
v -0.800000 0.200000 -0.382683
v -0.382684 0.200000 -0.800000
v 0.300000 0.300000 -0.100000
v 0.100000 0.300000 -0.300000
v 0.300000 0.300000 0.100000
v 0.100000 0.300000 0.300000
v -0.100000 0.300000 0.300000
v -0.300000 0.300000 0.100000
v -0.300000 0.300000 -0.100000
v -0.100000 0.300000 -0.300000
v -0.350000 0.250000 -0.150000
v -0.150000 0.250000 -0.350000
v -0.150000 0.250000 0.350000
v -0.350000 0.250000 0.150000
v 0.350000 0.250000 0.150000
v 0.150000 0.250000 0.350000
v 0.150000 0.250000 -0.350000
v 0.350000 0.250000 -0.150000
v 0.382683 0.050000 -0.950000
v 0.950000 0.050000 -0.382683
v 0.950000 0.050000 0.382683
v 0.382683 0.050000 0.950000
v -0.382684 0.050000 0.950000
v -0.950000 0.050000 0.382683
v -0.950000 0.099748 -0.382683
v -0.382684 0.050000 -0.950000
vt 0.275652 0.895781
vt 0.275757 0.896522
vt 0.273855 0.898533
vt 0.273136 0.898406
vt 0.273876 0.902191
vt 0.273133 0.902295
vt 0.275886 0.904132
vt 0.275751 0.904845
vt 0.279489 0.904154
vt 0.279590 0.904889
vt 0.281375 0.902170
vt 0.282089 0.902295
vt 0.281319 0.898503
vt 0.282061 0.898407
vt 0.299617 0.762657
vt 0.302091 0.768348
vt 0.300236 0.769060
vt 0.297762 0.763369
vt 0.279372 0.896511
vt 0.279517 0.895798
vt 0.289230 0.836572
vt 0.291136 0.837442
vt 0.288195 0.840382
vt 0.287325 0.838477
vt 0.289230 0.832761
vt 0.291136 0.831891
vt 0.283514 0.830856
vt 0.282644 0.828950
vt 0.288195 0.828950
vt 0.287325 0.830856
vt 0.281609 0.832761
vt 0.279704 0.831891
vt 0.281609 0.836572
vt 0.279704 0.837442
vt 0.283514 0.838477
vt 0.282644 0.840382
vt 0.276289 0.897355
vt 0.275452 0.896973
vt 0.279375 0.893050
vt 0.279757 0.893887
vt 0.276289 0.903786
vt 0.275452 0.904168
vt 0.279757 0.907254
vt 0.279375 0.908091
vt 0.286188 0.907254
vt 0.286570 0.908091
vt 0.289656 0.903786
vt 0.290493 0.904168
vt 0.289656 0.897355
vt 0.290493 0.896973
vt 0.286188 0.893887
vt 0.286570 0.893050
vt 0.268230 0.790844
vt 0.264822 0.785731
vt 0.275048 0.784026
vt 0.300236 0.774039
vt 0.295289 0.775936
vt 0.294052 0.774750
vt 0.298999 0.772853
vt 0.275532 0.786999
vt 0.271576 0.778771
vt 0.274527 0.777752
vt 0.278483 0.785980
vt 0.274559 0.768777
vt 0.282492 0.763680
vt 0.284448 0.765992
vt 0.276515 0.771089
vt 0.294052 0.759812
vt 0.294052 0.761472
vt 0.284448 0.789347
vt 0.284427 0.787545
vt 0.289497 0.834472
vt 0.297652 0.838549
vt 0.295614 0.838549
vt 0.289497 0.835491
vt 0.273187 0.838549
vt 0.281342 0.834472
vt 0.281342 0.835491
vt 0.275226 0.838549
vt 0.281342 0.846704
vt 0.273187 0.842627
vt 0.275226 0.842627
vt 0.281342 0.845685
vt 0.297652 0.842627
vt 0.289497 0.846704
vt 0.289497 0.845685
vt 0.295614 0.842627
vt 0.773646 0.898095
vt 0.775493 0.898095
vt 0.775493 0.909042
vt 0.773646 0.909042
vt 0.785049 0.889266
vt 0.785973 0.889981
vt 0.771758 0.903741
vt 0.769990 0.904035
vt 0.765243 0.895483
vt 0.767010 0.895189
vt 0.766591 0.915902
vt 0.765243 0.915211
vt 0.789395 0.901581
vt 0.787795 0.902087
vt 0.779632 0.894347
vt 0.781232 0.893841
vt 0.789395 0.914068
vt 0.787795 0.913562
vt 0.781232 0.921808
vt 0.779632 0.921302
vt 0.785973 0.917156
vt 0.785049 0.917871
vt 0.278457 0.785731
vt 0.278457 0.789139
vt 0.275048 0.790844
vt 0.264822 0.789139
vt 0.268230 0.784026
vn 0.5774 0.5773 -0.5774
vn 0.7071 0.7071 0.0000
vn 0.5774 0.5773 0.5774
vn 0.0000 0.7071 0.7071
vn -0.5774 0.5774 0.5774
vn -0.6404 0.7677 0.0249
vn -0.4082 0.8165 -0.4082
vn -0.5229 0.6464 -0.5556
vn -0.0000 0.7071 -0.7071
vn 0.0000 1.0000 0.0000
vn -0.4082 0.8165 0.4082
vn 0.4082 0.8165 0.4082
vn 0.4082 0.8165 -0.4082
vn -0.7071 0.7071 0.0000
vn -0.6304 0.4270 -0.6483
vn -0.8315 0.5553 0.0180
vn -0.5774 0.5773 0.5774
vn 0.5773 0.5774 0.5773
vn 0.5773 0.5774 -0.5773
usemtl Material
s off
f 49/1/1 26/2/1 25/3/1 50/4/1
f 50/4/2 25/3/2 27/5/2 51/6/2
f 51/6/3 27/5/3 28/7/3 52/8/3
f 52/8/4 28/7/4 29/9/4 53/10/4
f 53/10/5 29/9/5 30/11/5 54/12/5
f 54/12/6 30/11/6 31/13/6 55/14/6
f 42/15/7 41/16/7 39/17/7 40/18/7
f 55/14/8 31/13/8 32/19/8 56/20/8
f 56/20/9 32/19/9 26/2/9 49/1/9
f 16/21/10 23/22/10 24/23/10 14/24/10
f 2/25/10 21/26/10 23/22/10 16/21/10
f 6/27/10 20/28/10 22/29/10 4/30/10
f 8/31/10 19/32/10 20/28/10 6/27/10
f 10/33/10 18/34/10 19/32/10 8/31/10
f 12/35/10 17/36/10 18/34/10 10/33/10
f 14/24/10 24/23/10 17/36/10 12/35/10
f 22/37/10 25/38/10 26/39/10 21/40/10
f 20/41/10 27/42/10 25/38/10 22/37/10
f 19/43/10 28/44/10 27/42/10 20/41/10
f 18/45/10 29/46/10 28/44/10 19/43/10
f 17/47/10 30/48/10 29/46/10 18/45/10
f 24/49/10 31/50/10 30/48/10 17/47/10
f 23/51/10 32/52/10 31/50/10 24/49/10
f 21/40/10 26/39/10 32/52/10 23/51/10
f 39/53/10 37/54/10 35/55/10
f 44/56/11 43/57/11 37/58/11 38/59/11
f 46/60/12 45/61/12 35/62/12 36/63/12
f 48/64/13 47/65/13 34/66/13 33/67/13
f 47/68/9 42/15/9 40/18/9 34/69/9
f 41/16/14 44/56/14 38/59/14 39/17/14
f 43/70/4 46/60/4 36/63/4 37/71/4
f 45/61/2 48/64/2 33/67/2 35/62/2
f 6/72/2 4/73/2 48/74/2 45/75/2
f 10/76/4 8/77/4 46/78/4 43/79/4
f 14/80/14 12/81/14 44/82/14 41/83/14
f 2/84/9 16/85/9 42/86/9 47/87/9
f 4/73/13 2/84/13 47/87/13 48/74/13
f 8/77/12 6/72/12 45/75/12 46/78/12
f 12/81/11 10/76/11 43/79/11 44/82/11
f 16/85/7 14/80/7 41/83/7 42/86/7
f 4/30/10 22/29/10 21/26/10 2/25/10
f 15/88/9 56/89/9 49/90/9 1/91/9
f 13/92/15 55/93/15 56/89/15 15/88/15
f 11/94/16 54/95/16 55/96/16 13/97/16
f 9/98/17 53/99/17 54/95/17 11/94/17
f 7/100/4 52/101/4 53/102/4 9/103/4
f 5/104/18 51/105/18 52/101/18 7/100/18
f 3/106/2 50/107/2 51/105/2 5/104/2
f 1/91/19 49/90/19 50/108/19 3/109/19
f 35/55/10 33/110/10 34/111/10
f 34/111/10 40/112/10 39/53/10
f 39/53/10 38/113/10 37/54/10
f 37/54/10 36/114/10 35/55/10
f 35/55/10 34/111/10 39/53/10
