# Blender v2.79 (sub 0) OBJ File: 'wall.blend'
# www.blender.org
mtllib wall.mtl
o Cube
v -1.000000 1.600000 0.400000
v 0.700000 0.000000 0.400000
v -0.000000 0.000000 0.400000
v -0.700000 0.000000 0.400000
v 0.700000 1.600000 0.400000
v -0.000001 1.600000 0.400000
v -0.700000 1.600000 0.400000
v 1.000000 1.600000 -0.200000
v 1.000000 1.600000 0.133334
v -0.000000 1.600000 -0.200000
v -0.000000 1.600000 0.133334
v -1.000000 1.600000 -0.200000
v -1.000000 1.600000 0.133333
v -0.700000 0.000000 0.500000
v -1.000000 0.000000 0.500000
v -1.000000 1.600000 0.500000
v -0.700001 1.600000 0.500000
v 1.000000 1.600000 0.400000
v 0.700000 0.000000 0.500000
v 1.000000 0.000000 0.500000
v 1.000000 1.600000 0.500000
v 0.700000 1.600000 0.500000
v 0.700000 1.200000 0.400000
v 0.700000 0.800000 0.400000
v 0.700000 0.400000 0.400000
v -0.000000 1.200000 0.400000
v -0.000000 0.800000 0.400000
v -0.000000 0.400000 0.400000
v -0.700000 1.200000 0.400000
v -0.700000 0.800000 0.400000
v -0.700000 0.400000 0.400000
v -1.000000 0.400000 0.500000
v -1.000000 0.800000 0.500000
v -1.000000 1.200000 0.500000
v -0.700000 1.200000 0.500000
v -0.700000 0.800000 0.500000
v -0.700000 0.400000 0.500000
v 1.000000 0.400000 0.500000
v 1.000000 0.800000 0.500000
v 1.000000 1.200000 0.500000
v 0.700000 1.200000 0.500000
v 0.700000 0.800000 0.500000
v 0.700000 0.400000 0.500000
v -1.000000 0.000000 -0.200000
v 1.000000 0.000000 -0.200000
v 0.000000 0.000000 -0.200000
vt 0.991906 0.985054
vt 0.991906 0.991079
vt 0.981362 0.991079
vt 0.981362 0.985054
vt 0.970819 0.991079
vt 0.970819 0.985054
vt 0.964751 0.845229
vt 0.954537 0.845229
vt 0.954537 0.842505
vt 0.961687 0.842505
vt 0.944323 0.845229
vt 0.947387 0.842505
vt 0.995635 0.986084
vt 0.977448 0.986084
vt 0.977448 0.980021
vt 0.995635 0.980021
vt 0.930273 0.858386
vt 0.930273 0.848172
vt 0.932997 0.848172
vt 0.932997 0.858386
vt 0.930273 0.868599
vt 0.932997 0.868599
vt 0.987837 0.978582
vt 0.987837 0.984607
vt 0.983319 0.984607
vt 0.983319 0.978582
vt 0.989344 0.978582
vt 0.989344 0.984607
vt 0.975964 0.983293
vt 0.975964 0.977231
vt 0.994152 0.977231
vt 0.994152 0.983293
vt 0.993412 0.985054
vt 0.997931 0.985054
vt 0.997931 0.991079
vt 0.993412 0.991079
vt 0.944323 0.842505
vt 0.964751 0.842505
vt 0.919593 0.858658
vt 0.919050 0.858658
vt 0.919050 0.856483
vt 0.919593 0.856483
vt 0.976503 0.892399
vt 0.975554 0.892399
vt 0.975554 0.888601
vt 0.976503 0.888601
vt 0.983459 0.925319
vt 0.982882 0.925319
vt 0.982882 0.923009
vt 0.983459 0.923009
vt 0.917419 0.858658
vt 0.917419 0.856483
vt 0.972706 0.892399
vt 0.972706 0.888601
vt 0.981150 0.925319
vt 0.981150 0.923009
vt 0.927243 0.858658
vt 0.927243 0.856483
vt 0.927786 0.856483
vt 0.927786 0.858658
vt 0.982732 0.895598
vt 0.982732 0.887388
vt 0.984785 0.887388
vt 0.984785 0.895598
vt 0.981461 0.923157
vt 0.981461 0.909665
vt 0.984835 0.909665
vt 0.984835 0.923157
vt 0.929418 0.856483
vt 0.929418 0.858658
vt 0.990942 0.887388
vt 0.990942 0.895598
vt 0.994954 0.909665
vt 0.994954 0.923157
vt 0.923399 0.858658
vt 0.923399 0.856483
vt 0.983149 0.892399
vt 0.983149 0.888601
vt 0.989794 0.888601
vt 0.989794 0.892399
vt 0.987502 0.925319
vt 0.987502 0.923009
vt 0.991544 0.923009
vt 0.991544 0.925319
vt 0.894271 0.854644
vt 0.900324 0.854644
vt 0.900324 0.864328
vt 0.894271 0.864328
vt 0.888219 0.854644
vt 0.888219 0.864328
vn 0.0000 -0.0000 1.0000
vn 0.0000 1.0000 0.0000
vn 1.0000 0.0000 0.0000
vn -1.0000 0.0000 0.0000
vn 0.0000 0.0000 -1.0000
usemtl Wall
s off
f 23/1/1 5/2/1 6/3/1 26/4/1
f 26/4/1 6/3/1 7/5/1 29/6/1
f 9/7/2 11/8/2 6/9/2 5/10/2
f 11/8/2 13/11/2 7/12/2 6/9/2
f 7/13/2 1/14/2 16/15/2 17/16/2
f 10/17/2 12/18/2 13/19/2 11/20/2
f 8/21/2 10/17/2 11/20/2 9/22/2
f 35/23/1 17/24/1 16/25/1 34/26/1
f 29/27/3 7/28/3 17/24/3 35/23/3
f 5/29/2 22/30/2 21/31/2 18/32/2
f 41/33/1 40/34/1 21/35/1 22/36/1
f 23/1/4 41/33/4 22/36/4 5/2/4
f 7/12/2 13/11/2 1/37/2
f 5/10/2 18/38/2 9/7/2
f 2/39/4 19/40/4 43/41/4 25/42/4
f 25/43/4 43/44/4 42/45/4 24/46/4
f 24/47/4 42/48/4 41/49/4 23/50/4
f 19/40/1 20/51/1 38/52/1 43/41/1
f 43/44/1 38/53/1 39/54/1 42/45/1
f 42/48/1 39/55/1 40/56/1 41/49/1
f 4/57/3 31/58/3 37/59/3 14/60/3
f 31/61/3 30/62/3 36/63/3 37/64/3
f 30/65/3 29/66/3 35/67/3 36/68/3
f 14/60/1 37/59/1 32/69/1 15/70/1
f 37/64/1 36/63/1 33/71/1 32/72/1
f 36/68/1 35/67/1 34/73/1 33/74/1
f 3/75/1 28/76/1 31/58/1 4/57/1
f 28/77/1 27/78/1 30/79/1 31/80/1
f 27/81/1 26/82/1 29/83/1 30/84/1
f 2/39/1 25/42/1 28/76/1 3/75/1
f 25/43/1 24/46/1 27/78/1 28/77/1
f 24/47/1 23/50/1 26/82/1 27/81/1
f 10/85/5 8/86/5 45/87/5 46/88/5
f 12/89/5 10/85/5 46/88/5 44/90/5
